<?xml version="1.0" encoding="utf-8"?>
<!-- Generator: Adobe Illustrator 25.4.1, SVG Export Plug-In . SVG Version: 6.00 Build 0)  -->
<svg version="1.1" id="Layer_1" xmlns="http://www.w3.org/2000/svg" xmlns:xlink="http://www.w3.org/1999/xlink" x="0px" y="0px"
	 viewBox="0 0 110 110" style="enable-background:new 0 0 110 110;" xml:space="preserve">
<style type="text/css">
	.st0{fill:#FFFFFF;}
	.st1{fill:#F7243C;}
</style>
<g>
	<path class="st0" d="M83.8,28.2c0.2,0,0.3-0.1,0.7-0.5l3.1-3.2c0.4-0.4,0.5-0.5,0.5-0.7c0.1-0.3-0.1-0.5-0.4-0.8l-1.3-1.3l-4.8,4.8
		l1.3,1.3C83.3,28.1,83.5,28.2,83.8,28.2z"/>
	<path class="st0" d="M62,9.7l-1.5-0.2c-0.3,0-0.6,0-0.8,0.2c-0.1,0.1-0.2,0.3-0.2,0.9l-0.6,4.4c-0.1,0.6-0.1,0.7,0,0.9
		c0.1,0.2,0.3,0.4,0.8,0.4l1.4,0.2c0.5,0.1,0.7,0,0.9-0.2c0.1-0.2,0.2-0.3,0.2-0.9l0.6-4.4c0.1-0.6,0.1-0.7,0-0.9
		C62.7,9.8,62.5,9.7,62,9.7z"/>
	<polygon class="st0" points="34.1,18.8 36.6,17.6 34,15.3 	"/>
	<polygon class="st0" points="16.2,39.4 17.4,36.9 14,36.7 	"/>
	<polygon class="st0" points="94.7,34.1 91.3,34.2 92.5,36.6 	"/>
	<path class="st0" d="M55,2.4C26,2.4,2.4,26,2.4,55S26,107.6,55,107.6S107.6,84,107.6,55S84,2.4,55,2.4z M89.5,34.3l-1.5,0
		c-0.3,0-0.5,0.1-0.7,0.1c-0.2,0.1-0.3,0.2-0.5,0.5l-1.3-2.6c0.8,0.2,1.3,0.3,2.3,0.2l8.5-0.2c0.2-0.2,0.3-0.4,0.4-0.6l2,4L92.1,43
		c-0.3,0.3-0.6,0.8-0.7,1.2l-2.3-4.6c0.3,0.1,0.5,0.1,0.7-0.1c0.2-0.1,0.5-0.3,0.8-0.7l0.8-0.9L89.5,34.3z M18.3,41.9
		c0.2,0.2,0.4,0.4,0.6,0.5c0.2,0.1,0.3,0.1,0.7,0.1l-1.2,2.6c-0.3-0.7-0.6-1.2-1.2-1.9l-5.4-6.6c-0.3,0-0.5,0-0.7,0.1l1.9-4.1
		l9.7,0.6c0.4,0,1-0.1,1.4-0.2l-2.2,4.6c-0.1-0.3-0.3-0.4-0.5-0.5c-0.2-0.1-0.6-0.2-1-0.2l-1.2,0l-1.8,3.8L18.3,41.9z M24.5,30.6
		c0.5,0.4,0.9,0.7,1.4,0.7l-1.8,1.8c-0.1-0.5-0.3-0.9-0.8-1.4l-5.2-5c-0.5-0.4-0.9-0.7-1.4-0.7l3.9-4l8.6,2.8l-4.8-4.6
		c-0.5-0.4-0.9-0.7-1.4-0.7l1.8-1.8c0.1,0.5,0.3,0.9,0.8,1.4l6.2,6l-3.4,3.6l-8.8-2.8L24.5,30.6z M47.2,11.1l0.7,4.3
		c0.1,0.5,0.2,0.8,0.5,1c0.2,0.1,0.4,0.1,1,0l2-0.3c0.9-0.2,1.3-0.3,1.9-0.6l0,2l-6.2,1c-0.8,0.1-1.5,0-2.1-0.5
		c-0.6-0.5-0.8-0.9-1-2l-0.7-4.3c-0.2-1-0.1-1.6,0.3-2.2s1-1,1.8-1.1l6-1l0.7,2c-0.6-0.3-0.8-0.3-1.9-0.1l-2.1,0.3
		c-0.6,0.1-0.8,0.2-0.9,0.4C47.1,10.3,47.1,10.4,47.2,11.1z M44.2,18.7L39.6,21c0.1-0.3,0-0.5-0.1-0.7c-0.1-0.2-0.3-0.5-0.7-0.8
		l-0.9-0.8l-3.7,1.9l0,1.5c0,0.3,0.1,0.5,0.2,0.7c0.1,0.2,0.2,0.3,0.5,0.5l-2.6,1.3c0.2-0.8,0.3-1.3,0.2-2.3l-0.2-8.5
		c-0.2-0.2-0.4-0.3-0.6-0.4l4-2l7.2,6.5C43.2,18.2,43.7,18.5,44.2,18.7z M71.1,9.9l5,2.5l-0.1,9l3-5.9c0.3-0.6,0.4-1,0.3-1.5
		l2.3,1.1c-0.4,0.2-0.8,0.6-1.1,1.2L76.5,24l-4.4-2.2l0.1-9.3l-3,6.1c-0.3,0.6-0.4,1-0.3,1.5L66.5,19c0.4-0.2,0.8-0.6,1.1-1.2
		l3.2-6.4C71.1,10.9,71.2,10.4,71.1,9.9z M66.7,11.6l-0.6,4.3c-0.1,1-0.4,1.6-0.8,2c-0.5,0.4-1.4,0.6-2.1,0.5l-5.9-0.8
		c-0.8-0.1-1.5-0.5-1.9-1.1C55,16,54.9,15.3,55,14.4l0.6-4.3c0.1-1,0.4-1.6,0.8-2c0.5-0.4,1.4-0.6,2.1-0.5l5.9,0.8
		c0.8,0.1,1.5,0.5,1.9,1.1C66.7,9.9,66.8,10.6,66.7,11.6z M78.8,23.9l5.1-5.1c0.4-0.4,0.7-0.9,0.8-1.4l6,6c0.6,0.6,0.9,1.3,0.9,2
		c0,0.6-0.4,1.2-1.1,1.9l-3.1,3.1c-0.7,0.7-1.3,1-1.9,1.1c-0.7,0-1.5-0.3-2-0.9l-6-6C77.9,24.5,78.4,24.3,78.8,23.9z M55,22.9
		c17.7,0,32.1,14.4,32.1,32.1S72.7,87.1,55,87.1S22.9,72.7,22.9,55S37.3,22.9,55,22.9z M56,105.9c-28,0.6-51.4-21.9-52-49.8
		c0-1.6,0-3.2,0.1-4.7c0.2-2.6,2.7-4.4,5.2-3.7c2.4,0.7,5.4,1.5,8.8,2.3c1.9,0.5,3.2,2.2,3.1,4.1c0,0.3,0,0.6,0,0.8
		c0,18.6,15.1,33.8,33.8,33.8S88.8,73.6,88.8,55c0-0.3,0-0.6,0-0.8c-0.1-1.9,1.2-3.7,3.1-4.1c3.4-0.8,6.4-1.6,8.8-2.3
		c2.5-0.7,5,1,5.2,3.6c0.1,1.2,0.1,2.4,0.1,3.7C106,82.7,83.7,105.4,56,105.9z"/>
	<path class="st0" d="M55,0C24.7,0,0,24.7,0,55s24.7,55,55,55s55-24.7,55-55S85.3,0,55,0z M55,109.2C25.1,109.2,0.8,84.9,0.8,55
		S25.1,0.8,55,0.8s54.2,24.3,54.2,54.2C109.2,84.9,84.9,109.2,55,109.2z"/>
	<path class="st0" d="M18.2,68.9l-3.4,0.4c-0.5,0.1-0.9,0.2-1.6,0.3l0,0c0.5-0.2,1-0.5,1.5-0.8l2.9-1.8l-0.7-2l-6.7,2.4l0.4,1.3
		l2.1-0.7c1.3-0.5,2.7-1,4-1.5l0,0L11,70l0.3,0.8l6.6-0.8l0,0c-1.4,0.4-2.7,0.8-4,1.3L11.7,72l0.4,1.3l6.7-2.4L18.2,68.9z"/>
	<path class="st0" d="M20.2,73.2l-7.1,2l0.7,1.2l1.8-0.6l0.8,1.4l-1.4,1.2l0.7,1.2l5.5-4.9L20.2,73.2z M19.5,74.7
		c-0.3,0.2-0.5,0.4-0.8,0.6l-1.6,1.3l-0.6-1l2-0.6C18.8,74.8,19.1,74.7,19.5,74.7c0.1-0.2,0.2-0.2,0.4-0.3l0,0
		C19.8,74.5,19.6,74.6,19.5,74.7z"/>
	<path class="st0" d="M21.6,81.7L21.6,81.7c0.7,0.6,1.4,0.3,2-0.2c1-0.8,0.8-1.7,0.1-2.6l-1.5-2l-5.7,4.3l0.8,1.1l2.5-1.9l0.1,0.2
		c0.2,0.3,0.5,0.6,0.6,1c0.2,0.4-0.3,0.8-0.7,1.1c-0.4,0.3-1.1,0.8-1.4,1.2l0.9,1.2l0.1-0.1c0-0.4,1.4-1.4,1.6-1.6
		C21.7,82.9,21.9,82.4,21.6,81.7z M21.3,80.5l-0.6-0.8l1.6-1.2l0.6,0.8c0.3,0.4,0.4,0.8-0.2,1.2C22,81,21.5,80.9,21.3,80.5z"/>
	<polygon class="st0" points="27.9,85 28.7,84.3 25.5,81.1 24.8,81.9 25.9,83 21.6,87.2 22.5,88.2 26.8,83.9 	"/>
	
		<rect x="24.2" y="87.5" transform="matrix(0.6354 -0.7721 0.7721 0.6354 -57.9175 53.5695)" class="st0" width="7.1" height="1.3"/>
	<path class="st0" d="M32.8,87.4l-5.3,5l1.2,0.8l1.3-1.3l1.3,0.9l-0.7,1.7l1.2,0.8l2.6-6.8L32.8,87.4z M32.4,89.9l-0.8,1.9l-1-0.6
		l1.4-1.5c0.2-0.2,0.4-0.5,0.7-0.8c0.1-0.1,0.2-0.3,0.3-0.4l0,0c-0.1,0.1-0.1,0.3-0.2,0.4C32.7,89.3,32.5,89.6,32.4,89.9z"/>
	<polygon class="st0" points="36.5,89.7 33.4,96.2 36.8,97.8 37.3,96.9 35.1,95.8 37.7,90.3 	"/>
	<path class="st0" d="M41.3,99.5l1.4,0.3l0.8-1.7l1.5,0.4l-0.1,1.8l1.4,0.3l0.1-7.3L44.7,93L41.3,99.5z M45.2,94.4
		c0-0.2,0.1-0.3,0.2-0.5l0,0c0,0.2,0,0.3-0.1,0.5c0,0.3-0.1,0.7-0.1,1l-0.1,2.1L44,97.2l0.9-1.9C45,95,45.1,94.7,45.2,94.4z"/>
	<path class="st0" d="M51.5,94.2L49,93.9l-0.7,7.1l1.3,0.1l0.3-3.1l0.2,0c0.4,0,0.8,0.1,1.1,0.2c0.4,0.2,0.4,0.8,0.3,1.2
		c0,0.5-0.1,1.3,0,1.8l1.5,0.1l0-0.1c-0.3-0.2-0.1-2-0.1-2.3c0.1-0.7-0.1-1.2-0.9-1.4l0,0c0.9,0,1.2-0.8,1.3-1.6
		C53.5,94.7,52.6,94.3,51.5,94.2z M51.9,96.2c-0.1,0.7-0.4,1-0.9,0.9L50,97l0.2-2l1,0.1C51.7,95.2,52,95.4,51.9,96.2z"/>
	<polygon class="st0" points="58.8,94.2 54.4,94.4 54.4,95.4 56,95.3 56.2,101.4 57.5,101.4 57.3,95.3 58.8,95.2 	"/>
	<path class="st0" d="M64,97.1c-0.4-0.3-1.3-0.7-1.8-0.9c-0.5-0.2-0.8-0.3-0.9-0.9c-0.1-0.5,0.2-0.7,0.6-0.8c0.7-0.1,0.9,0.5,1,1.1
		l1.3-0.2c-0.1-0.7-0.4-2.3-2.4-1.9c-1.4,0.2-1.9,1-1.7,2.2c0.1,0.4,0.3,0.7,0.5,1c0.7,0.6,1.6,0.8,2.4,1.3c0.4,0.2,0.6,0.4,0.7,0.8
		c0.1,0.5-0.1,0.9-0.7,1c-0.6,0.1-0.9-0.3-1-1l-0.1-0.4l-1.3,0.2l0.1,0.5c0.2,1.3,0.9,2,2.5,1.8c1.3-0.2,2-1.1,1.8-2.4
		C64.8,97.9,64.6,97.5,64,97.1z"/>
	<path class="st0" d="M68.9,91.8L70,99l1.3-0.5L71,96.7l1.4-0.6l1,1.5l1.3-0.5l-4.2-6L68.9,91.8z M71.8,95.2l-1.1,0.4l-0.4-2
		c-0.1-0.3-0.2-0.6-0.2-1c-0.1-0.2-0.1-0.3-0.1-0.5l0,0c0.1,0.1,0.2,0.3,0.2,0.4c0.2,0.3,0.3,0.6,0.5,0.9L71.8,95.2z"/>
	<path class="st0" d="M78.9,91.9l-1.2,0.7c0.2,0.4,0.9,1.4,0.2,1.8c-0.8,0.5-1.3-0.3-1.6-0.9l-1-1.7c-0.3-0.5-1-1.5-0.1-2
		c0.6-0.3,1,0.4,1.2,0.8l1.1-0.7c-0.1-0.2-0.2-0.3-0.3-0.5c-0.7-1-1.6-1.2-2.6-0.6c-1.8,1.1-1.3,2.3-0.4,3.9l0.5,0.9
		c1,1.6,1.8,2.8,3.7,1.7c1.3-0.7,1.2-1.8,0.6-3C79,92.1,79,92,78.9,91.9z"/>
	<path class="st0" d="M78.5,86.5l3.1,6.7l1.1-0.9l-0.8-1.6l1.2-1l1.4,1.2l1.1-0.9l-5.7-4.6L78.5,86.5z M80.7,87.6l1.5,1.4l-0.9,0.7
		l-0.9-1.8c-0.2-0.3-0.3-0.6-0.5-0.9c-0.1-0.1-0.2-0.3-0.3-0.4l0,0c0.1,0.1,0.2,0.2,0.3,0.3C80.3,87.2,80.5,87.4,80.7,87.6z"/>
	<path class="st0" d="M87.4,82.7c-0.9-0.8-1.5-1.3-2.1-1.4c-0.8-0.2-1.3,0.2-1.5,0.4l-1.9,2l5.2,4.9l1.7-1.8
		c0.2-0.2,0.5-0.5,0.5-0.8C89.6,84.8,88.5,83.7,87.4,82.7z M87.7,86.5l-0.4,0.4l-3.6-3.5l0.6-0.6c0.6-0.6,1.2-0.2,2.4,0.9
		C88.1,85.2,88.5,85.7,87.7,86.5z"/>
	<polygon class="st0" points="91.7,81.7 89.9,80.5 91.2,78.7 90.3,78.1 89,79.9 87.6,78.8 89,76.9 88.1,76.2 86,79.3 91.8,83.4 
		93.9,80.4 93.1,79.8 	"/>
	<path class="st0" d="M90.7,71.6l2.6,2.1c0.4,0.3,0.8,0.5,1.4,0.9l0,0c-0.5-0.2-1-0.4-1.6-0.5l-3.3-0.8l-0.9,1.9l6.4,3.2l0.6-1.2
		l-2-1c-1.3-0.6-2.5-1.2-3.9-1.8l0,0l6.4,1.6l0.4-0.7l-5.2-4.2l0,0c1.2,0.7,2.5,1.4,3.8,2l2,1l0.6-1.2l-6.4-3.2L90.7,71.6z"/>
	<path class="st0" d="M93.4,63.9L93,65.3l1.4,1.1c0.3,0.3,0.7,0.6,1.2,0.8l0,0c-0.4-0.1-0.8-0.1-1.1,0l-2,0.2l-0.4,1.4l4.5-0.6
		l2.9,0.9l0.4-1.3l-2.9-0.9L93.4,63.9z"/>
	<path class="st1" d="M40.5,55.7h26.6c0.7,0,1.2,0.6,1.2,1.2l0,0c0,0.7-0.6,1.2-1.2,1.2H42c-3.6,0-6.5,2.9-6.5,6.5v0.7
		c0,7.4,6,13.3,13.3,13.3c0,0,9.1,0.5,18.6-7.4c0.6-0.5,0.3-1.6-0.6-1.6H56.4h-7.5c-0.1,0-0.2,0-0.3,0c-1.5-0.1-1.4-2.4,0.1-2.4
		h20.4c5.4,0,9.8-4.4,9.8-9.8v-0.8c0-5.4-4.4-9.8-9.8-9.8H47.8c-1.6,0-1.7-2.3-0.1-2.4c0.1,0,0.2,0,0.3,0h5.8
		c-0.1-0.1-0.2-0.2-0.3-0.2c-1.1-0.9-2-2.1-2.3-3.4c0.7,1.1,1.7,2.1,2.8,2.8c0.6,0.4,1.2,0.6,1.8,0.9h0.1c0.1,0,0.2,0.1,0.3,0.1
		c0.5,0.1,1,0.2,1.4,0.3c0.6,0.1,1.3,0.1,2,0c0.7,0,1.3-0.1,2-0.2c1-0.1,4.5-0.6,5.1-0.8c0.9-0.2,1.6-0.7,2.1-1.3h2.8l2.1,2.1
		c0.1,0.1,0.2,0.2,0.4,0.2c0.1,0,0.3-0.1,0.4-0.2c0.2-0.2,0.2-0.5,0-0.7l-1.9-1.9l1.9-1.9c0.2-0.2,0.2-0.5,0-0.7
		c-0.2-0.2-0.5-0.2-0.7,0l-2.1,2.1h-2.1c0.5-1.3,0.4-2.8-0.5-4c-2.9-3.7-6.9-7.3-9.5-7.3c-3.7,0-6.8,1.8-7.7,5.1h-3.6
		c-7.8,0-14.1,6.3-14,14.1C34.1,52.9,37,55.7,40.5,55.7z M59.5,35.3C59.5,35.3,59.5,35.3,59.5,35.3c0.3-1.1,1.7-1.3,2.4-0.5
		c0.3,0.4,0.6,0.7,0.9,1c0.6,0.6,1.2,1,1.8,1.4c0,0.6-2.8,1.1-3.4,0.9C60,37.9,59.2,36.6,59.5,35.3z"/>
	<ellipse class="st0" cx="12.2" cy="57.3" rx="3.5" ry="3.5"/>
	<ellipse class="st0" cx="97.8" cy="57.3" rx="3.5" ry="3.5"/>
</g>
</svg>
