<?xml version="1.0" encoding="utf-8"?>
<!-- Generator: Adobe Illustrator 25.0.1, SVG Export Plug-In . SVG Version: 6.00 Build 0)  -->
<svg version="1.1" id="Layer_1" xmlns="http://www.w3.org/2000/svg" xmlns:xlink="http://www.w3.org/1999/xlink" x="0px" y="0px"
	 viewBox="0 0 190.79 250" style="enable-background:new 0 0 190.79 250;" xml:space="preserve">
<style type="text/css">
	.st0{fill-rule:evenodd;clip-rule:evenodd;fill:#F7243C;}
</style>
<path class="st0" d="M75.83,17.03c0,1.89,2.52,3.15,3.84,3.85c0,5,0.01,7.02,4.4,9.34c-0.68,2.92-2.04,4.42,0.85,6.29
	c2.18,1.41,1.82-0.49,1.9,3.05c-2.49,0-4.35,0.61-6.56,1.14c-9.47,2.24-5.68,9.4-29.38,4.03c-4.18-0.95-7.26-2.42-11.87-2.42
	c-1.66-7.14-5.48-2.88-10.19-5.74c-2.25-1.37-0.53-2.1-4.32-3.37c-2.26-0.76-4.2-1.02-6.68-1.56c-4.53-0.99-8.51-3.17-12.19-0.19
	c-6.67,5.4-7.63,18.25-1.67,20.64c0.54,0.22,2.08,0.46,2.65,0.65c2.15,0.72,1.92,1.73,4.23,2.37c3.53,0.97,7.9-0.67,11.41-1.59
	c4.56-1.21,3.3,0.25,7.07,1.79c3.65,1.48,5.18-0.36,8.53,1.91c2.41,1.63,4.64,1.7,7.97,2.47c3.15,0.73,15.59,2.2,18.69,1.57
	c6.1-1.25,10.81-3.01,17.92-3.01l6.03,3.31c0.87,0.61,3.58,3.85,4.83,5.06c2.96,2.9,2.08,1.98,3.37,5.98
	c4.54,14.1,11.6,19.7,11.6,36.75c0,6.15,0.78,12.21-0.98,17.7c-1.52,4.73-0.73,11.54,0.04,16.23c0.83,5.12,1.61,2.05-0.88,6.55
	c-0.71,1.27-0.73,1.84-1.32,3.08c-1.46,3.04-4,6.43-4,10.29c0,9.68,5.67,19.15,7.46,28.8c0.51,2.76,0.78,4.75,1.6,7.19
	c3.09,9.13,5.22,16.23,5.22,26.64c0,1.78-1.54,7.04-2.34,8.1c-1.07,1.41-7.06,6.1-8.79,6.6c-5.66,1.61-14.01,3.13-10.65,7.62
	c1.45,1.93,3.45,0.84,4.65,0.99c2.02,0.26,0.58,0.87,2.84,0.87c2.07,0,3.38-1.15,7.7-1.1c2.76,0.04,11.69-1.08,14.37-2.12
	c1.21-0.46,2.28-1.22,2.95-1.44c3.3-1.08,8.39,0.61,7.84-5.62c-0.4-4.58-2.03-10.36-3.66-14.53c-1.94-4.95-0.03-12.23-0.94-18.29
	c-0.51-3.38-0.53-7.71,0.01-11.08c1.12-7.12-3.52-11.61-4.09-18.36c0.09,0.1,0.2,0.14,0.23,0.32c0.4,2.19,3.94,4.71,5.39,6.15
	c5.99,5.94,11.77,6.03,14.72,10c4.85,6.54,6.91,7.06,14.1,10.63c5.02,2.49,10.08,8.02,11.81,13.47c0.59,1.87,0.34,3.09,0.45,5.6
	c0.18,4.34,3.08,7.67-2.37,9.7c-2.43,0.9-4.21,0.88-4.21,4.03c0,5.24,10.31,0.98,12.09,0c2.55-1.41,4.11-4.55,4.41-7.67
	c0.46-4.89,1.33-5.36,3.74-8.34c3.76-4.66,8.25-6.79,2.18-11.9l-5.97-3.92c-0.78-0.48-1.36-0.67-2.15-1.15
	c-11.79-7.13-6.02-14.01-27.63-26.22c-7.54-4.26-7.4-11.18-8.18-18.74c-0.21-1.99-0.98-3.81-1.03-6.11
	c11.61,0,9.64,0.21,12.26-17.41c0.47-3.2,0.67-7.32,0.97-11.12c0.91-11.68-0.83-8.97-4.31-18.3c-0.81-2.18-1.62-7.58-1.78-10.31
	c-0.44-7.52-2.2-14.81-2.2-22.53c0-2.76,0.49-2.46,0.55-4.94c3.74,0,10.22,2.72,13.06-0.13c4.75-4.77-0.02-13.82-2.07-16.91
	c-3.46-5.24-5.99-5.13-8.66-8.37c-4.67-5.67-2.65-9.13-10.55-14.73c-3.46-2.46-7.89-2.11-11.88-1.36c-3.51,0.67-2.75-0.27-5.72-0.27
	c-3.2,0-4.48,1.63-6.59,2.2c-1.2-2.27-2.53-4.18-3.68-6.76c-1.25-2.81-1.26-6.25-2.34-8.65C106.15,5.38,108.98,0,98.35,0
	c-3.18,0-6.09,0.67-8.25,1.64c-2.97,1.32-3.51,2.03-5.57,4.32l-2.51,2.43C79.69,10.54,75.83,13.38,75.83,17.03"/>
</svg>
