<?xml version="1.0" encoding="utf-8"?>
<!-- Generator: Adobe Illustrator 25.0.1, SVG Export Plug-In . SVG Version: 6.00 Build 0)  -->
<svg version="1.1" id="Layer_1" xmlns="http://www.w3.org/2000/svg" xmlns:xlink="http://www.w3.org/1999/xlink" x="0px" y="0px"
	 viewBox="0 0 143.39 250" style="enable-background:new 0 0 143.39 250;" xml:space="preserve">
<style type="text/css">
	.st0{fill:#F7243C;}
</style>
<path class="st0" d="M0.07,53.27c0.77,12.03-0.15,14.58,1.62,22.91c1.77,8.33,6.4,16.43,10.57,15.58c4.17-0.85,6.09-3.09,6.09-3.09
	s8.25,11.19,12.03,18.67c3.78,7.48,2.16,14.43,1.62,20.75c-0.54,6.33,3.24,14.81,8.02,21.37c4.78,6.56,5.48,17.05,5.48,17.05h1.54
	c0,0,1.31,7.33,1.31,12.11c0,4.78-2.16,10.34-0.62,23.84c1.54,13.5,3.78,17.51,3.78,20.44c0,2.93-0.85,6.33,0.31,8.49
	c1.16,2.16,1.5,6.21-0.23,7.95c-1.74,1.74-1.62,5.55-0.15,7.02c1.47,1.47,5.09,2.78,6.87,2.78c1.77,0,4.32,1.31,6.02,0.69
	c1.7-0.62,5.32,1.62,4.4-2.47c-0.93-4.09-2.31-5.09-3.24-8.25c-0.93-3.16-0.85-11.88-1.77-13.96c-0.93-2.08-0.85-16.28,0.23-23.07
	c1.08-6.79,0.93-11.42,0.15-14.58c-0.77-3.16,4.17-5.4,3.55-15.97c-0.62-10.57,0-18.13,0-18.13l11.11-13.42
	c0,0-2.62-14.27-2.62-16.12c0-1.85,10.41-1.08,12.88-2.62c2.47-1.54,4.71-10.95,4.71-10.95s11.26-13.73,12.73-17.05
	c0.39,0,5.48,13.96,7.1,18.67c1.62,4.71,4.71,10.53,3.16,13.1c-1.54,2.56-5.48,7.65-1.31,10.51c4.17,2.85,8.1,1.31,10.57,4.47
	c2.47,3.16,10.11,9.18,11.73,9.18c2.47,1.39,7.02,1.62,5.32-1.47c-1.7-3.09-3.32-1.77-4.47-5.09c-1.16-3.32-4.32-13.15-7.48-17.61
	c-3.16-4.46-3.7-11.17-4.17-18.88c-0.46-7.71-3.32-21.83-3.32-29.62c0-7.79-1.62-15.74-11.19-15.74c-5.76,0-9.15,2.1-13.13,4.99
	c0.04-2.17-0.49-4.92-0.83-7.84c-0.69-6.02-0.08-14.19-3.7-20.21c-3.63-6.02-4.63-8.95-5.17-12.65c-0.54-3.7-2.16-10.18-4.86-9.41
	c-2.7,0.77-2.31-1.16-4.4-0.31c-2.08,0.85-3.36,0.66-4.63,1.93c-1.27,1.27-2.93,0.77-2.93,3.24S71.7,25,72.51,25.81
	c0.81,0.81-1.85,2.01-0.23,3.63c1.62,1.62,3.09,2.85,5.09,2.47c2.01-0.39,3.24,1.47,3.78,3.09c0.54,1.62,1.85,4.63,1.39,7.79
	c-0.46,3.16-0.31,7.48-0.31,7.48s-5.25-4.17-8.1-4.17c-2.85,0-6.94-5.94-11.11-7.25c-4.17-1.31-10.68-2.82-12.88-0.62
	c-2.2,2.2,1.23-1.62,1.23-2.55c1.47,0,1.77-0.62,1.77-1.47c0-0.85,0.02-1.71,1.31-1.39c1.27,0.32,2.78,0.31,2.16-2.85
	c-0.62-3.16-1.27-4.44-0.23-5.48c1.04-1.04,1.54-1.08,1.54-4.01s0.39-4.63,0.39-4.63s3.74-0.42,5.01,0.85
	c-0.85-1.62-2.12-3.66-3.16-4.71c-1.04-1.04-7.41-14.04-18.05-11.73c-2.93-1.7-13.5,4.47-13.5,17.28c0,12.81-4.17,15.43-8.02,17.74
	c-3.86,2.31-9.06,2.58-12.42,5.94C4.82,44.6-0.7,41.24,0.07,53.27z M60.63,75.41c0,0,2.32-11.88,1.77-14.27
	c0,0,5.79,5.55,12.81,6.79c5.44,0.96,12.45,2.32,17.38,2.46c-0.9,0.57-1.84,1.13-2.87,1.7c-10.11,5.55-13.35,8.95-15.35,9.57
	c-2.01,0.62-6.09,1.77-6.09,2.93c0,1.16-1.58,0.5-2.47-0.39c-0.89-0.89-4.01-4.32-4.55-5.79C60.71,76.96,60.63,75.41,60.63,75.41z"
	/>
</svg>
