<?xml version="1.0" encoding="utf-8"?>
<!-- Generator: Adobe Illustrator 25.0.1, SVG Export Plug-In . SVG Version: 6.00 Build 0)  -->
<svg version="1.1" id="Layer_1" xmlns="http://www.w3.org/2000/svg" xmlns:xlink="http://www.w3.org/1999/xlink" x="0px" y="0px"
	 viewBox="0 0 217.9 250" style="enable-background:new 0 0 217.9 250;" xml:space="preserve">
<style type="text/css">
	.st0{fill:#F7243C;}
</style>
<g>
	<path class="st0" d="M217.64,209.82c-0.26-6.48-0.86-12.93-1.37-19.4c-0.58-7.38-1.5-14.72-1.79-22.14
		c-0.2-5.07-0.01-10.17-0.5-15.21c-0.63-6.59-0.32-13.11,0.37-19.67c0.76-7.18,0.49-14.38-2.18-21.18
		c-2.24-5.7-3.52-11.63-4.88-17.55c-0.84-3.66-0.94-7.42-0.44-11.18c0.33-2.54-0.43-4.88-2.1-6.72c-3.19-3.53-3.99-7.84-4.07-12.26
		c-0.08-4.89-1.15-9.41-3.6-13.59c-1.05-1.8-1.64-3.63-1.47-5.69c0.37-4.58-1.81-7.77-5.45-10.24c-4.41-2.99-8.78-6.06-12.9-9.43
		c-3.63-2.97-6.23-6.41-6.88-11.56c-1.12-8.87-5.48-12.95-13.04-13.67c-0.47-0.04-1.01,0.05-1.42-0.33c-1.67,0-3.33,0-5,0
		c-0.99,0.43-2.16,0.28-3.08,0.85c-6.35,3.98-10.11,9.75-11.49,17.07c-0.22,1.16-0.03,2.56,1.11,3.12c2.54,1.27,3,3.92,4,6.05
		c1.32,2.82,0.12,4.18-2.93,4.22c-1.92,0.03-3.8-0.1-5.67-0.7c-3.63-1.15-7.47-0.46-11.16-1c-3.23-0.47-6.33-0.23-9.35,0.8
		c-2.01,0.69-3.9,0.72-5.82-0.14c-2.53-1.14-5.18-1.16-7.85-0.75c-1.49,0.23-2.98,0.31-4.48,0.27c-0.58-0.02-1.18-0.02-1.63-0.47
		c-0.8-0.81-1.03-5.83-0.33-6.87c1.73-2.59,1.69-3.95-0.37-6.2c-2.68-2.92-5.82-5.28-9.4-6.92c-6.14-2.81-15.03-1.7-19.03,5.79
		c-2.56,4.79-3.63,9.61-2.98,14.89c0.34,2.75-0.68,4.7-3.04,6.01c-1.76,0.97-3.34,2.17-4.78,3.59c-3.69,3.64-6.1,8.09-8.23,12.73
		c-3.75,8.19-5.15,17.22-9.17,25.34c-1.41,2.85-1.59,6.24-0.36,9.27c0.89,2.19,0.64,4.01-0.36,5.95c-0.72,1.41-1.58,2.74-2.39,4.1
		c-4.1,6.97-6.86,14.4-7.98,22.46c-0.37,2.65,0.01,5.35-0.78,7.94c-2.98,9.79-4.06,19.87-4.61,30.04
		c-0.37,6.76-1.28,13.43-5.1,19.33c-1.17,1.81-2.02,3.83-2.76,5.88c-4.53,12.64-6.88,25.71-7.51,39.1
		c-0.11,2.36-0.53,4.68-1.82,6.67C0.84,229.56,0.36,230.73,0,232c0,1.17,0,2.33,0,3.5c0.52,3.02,1.13,6.03,2.17,8.92
		s2.08,3.61,5.17,3.76c3.49,0.17,6.98-0.45,10.48,0.08c1.49,0.23,2.1-0.74,2.26-2.06c0.24-1.98-0.61-3.66-1.88-5
		c-3.57-3.74-3.9-8.26-3.51-13.05c0.12-1.51,0.86-1.82,2.16-1.53c1.95,0.44,3.96,0.57,5.89,1.12c1.91,0.55,3.22-0.28,4.27-1.76
		c0.64-0.9,0.9-1.96,1.2-3c2.62-9.04,5.51-18,8.05-27.07c2.52-9,6.18-17.6,8.79-26.57c1.35-4.64,2.69-9.28,3.98-13.94
		c0.22-0.79,0.43-1.91,1.31-1.96c1.09-0.07,0.95,1.18,1.17,1.91c1.29,4.31,2.52,8.64,3.7,12.98c0.75,2.73,1.95,5.37,2.04,8.22
		c0.31,9.49,1.09,18.94,2.55,28.33c0.91,5.85,2,11.66,3.45,17.4c0.66,2.6,1.92,3.62,4.03,3.75c1.45,0.09,3.07-1.21,4.3,0.03
		c1.17,1.18,0.55,3.04,0.98,4.55c0.05,0.16,0.07,0.33,0.12,0.49c0.16,0.43,0.23,0.89,0.28,1.35c-0.5,1.34-1.01,2.69-1.48,4.04
		c-0.54,1.54-0.3,2.81,1.29,3.51c0.04,0.22,0.15,0.47,0.38,0.74c3.28,1.53,6.72,1.58,10.25,1.24c3.22-0.31,6.46-1.06,9.69-0.67
		c4.25,0.52,8.48,0.3,12.72,0.35c1.29,0.01,3.02,0.19,3.29-1.5c0.29-1.82-1.35-2.46-2.77-3.02c-0.39-0.15-0.8-0.24-1.21-0.28
		c-5.48-0.49-10.14-3.22-14.81-5.7c-2.93-1.55-4.47-4.24-3.81-7.96c0.43-2.44,0.56-4.96,0.71-7.45c0.43-7.14,1.17-14.26,1.71-21.4
		c0.42-5.58,0.42-11.14,0.01-16.71c-0.54-7.52-2.63-14.75-4.04-22.11c-1.07-5.55-1.26-11.28-3.27-16.65
		c-0.64-1.8-1.53-3.48-2.19-5.27c-0.36-0.77-0.7-1.56-1.18-2.26c-0.23-0.27-0.5-0.47-0.86-0.53c-0.1-0.3-0.2-0.59-0.3-0.89
		c0.04-0.31-0.19-1.45-0.31-1.84c-0.34-3.59-0.17-7.2-0.34-10.79c0.03-2.11,0.06-4.22,0.08-6.34c-0.55-1.07-0.52-2.37-1.26-3.37
		c0-0.02,0.01-0.03,0.01-0.05c-0.02-0.86-0.52-1.47-1.04-2.08c-0.56-0.3-0.75-0.7-0.39-1.27c2.63-4.86,6.47-6.07,11.42-3.61
		c1.27,0.63,2.51,1.34,3.88,1.68c5.74,1.4,11.44,2.86,16.84,5.34c2.13,0.98,3.54,0.33,4.89-1.68c0.79-1.17,1.38-2.47,2.17-3.64
		c0.64-0.95,1.42-1.58,2.62-1.65c7.19-0.41,14.35-1.89,21.58-0.35c1.95,0.42,3.52-0.44,4.14-2.35c0.5-1.54,1.55-2.49,2.71-3.46
		c2.03-1.7,4.64-1.7,6.96-2.53c1.67-0.59,2.34-0.07,2.23,1.66c-0.3,4.79,1.95,7.83,6.32,9.64c3.44,1.42,4.33,6.84,1.78,9.59
		c-1.22,1.31-2.95,2.26-3.28,4.25c0.03,0.51,0.21,0.98,0.38,1.45c0.78,1.31-0.86,2.61-0.12,3.92c-0.29,0.5-0.58,1.01-0.88,1.51
		c-0.95,0.97-1.94,4.48-2.14,4.97c-0.09,0.48-1.51,5.71-1.42,7.75c0.44,1.77-0.13,3.43-0.53,5.11c-0.4,2.55-0.91,5.08-1.56,7.58
		c-3.11,12.02-3.09,24.24-2.21,36.49c0.53,7.38,2.01,14.7,1.61,22.15c-0.1,1.93,0.3,3.82,0.59,5.71c0.17,1.14,0.66,2.29,1.79,2.49
		c2.8,0.5,2.72,2.44,2.59,4.51c-0.13,2.09-0.6,4.12-1.14,6.13c-0.34,1.28-1.12,2.19-2.28,2.83c-5.08,2.86-10.15,5.75-15.86,7.23
		c-0.72,0.19-1.45,0.39-2.09,0.81c-0.9,0.6-1.47,1.39-1.23,2.52c0.25,1.17,1.17,1.55,2.24,1.62c1.09,0.07,2.15-0.22,3.23-0.29
		c7.86-0.55,15.65-2.08,23.61-1.49c4.87,0.36,7.36-2.28,6.92-7.2c-0.4-4.39-0.88-8.77-1.14-13.18c-0.19-3.1-0.3-3.14,2.74-3.83
		c3.06-0.69,3.71-1.45,3.97-4.53c0.3-3.49,0.72-6.95,1.27-10.41c1.13-7.24,2.92-14.38,3.78-21.66c1.24-10.41,3.66-20.59,5.43-31.15
		c1.59,8.72,3.17,17.16,5.86,25.33c1.72,5.23,1.55,10.52,0.71,15.8c-0.51,3.2-0.61,6.3,0.33,9.38c0.82,2.7,0.9,5.45,0.51,8.17
		c-0.43,3.06-0.25,6.15-0.7,9.21c-0.35,2.4,0.77,3.73,3.13,4.35c0.89,0.24,1.81,0.32,2.73,0.27c1.82-0.1,2.51,0.74,2.52,2.53
		c0.03,4.4-0.69,8.77-0.52,13.19c0.14,3.64,0.09,7.32-1.07,10.88c-0.39,1.2,0.24,2.08,1.29,2.68c1.5,0,3,0,4.5,0
		c1.34-0.49,2.77-0.29,4.15-0.46c1.32-0.16,2.97,0.08,3.6-1.19c0.49-1,0.87-2.41,0.6-3.56c-1.11-4.68-1.96-9.36-2.25-14.2
		c-0.18-2.98-0.33-5.96-0.4-8.94c-0.03-1.39,0.61-2.17,1.98-2.41c0.9-0.16,1.79-0.43,2.7-0.5c1.44-0.12,2.24-0.9,2.62-2.22
		c0-1.83,0-3.67,0-5.5C217.59,210.65,217.66,210.23,217.64,209.82z M70.94,112.17c-0.41-1.18-0.64-2.38,1.28-2.18
		c-0.32,0.76,0,1.57,0.15,2.33c0.42,2.18,0.85,4.36,1.09,6.58c0.17,1,0.42,2,0.53,3.01c-0.01-0.02-0.01-0.04-0.02-0.05
		C72.84,118.66,72.06,115.37,70.94,112.17z M146.34,39.86c-3.88,0.55-7.53,1.07-11.47,1.63C137.36,38.35,144.19,37.37,146.34,39.86z
		 M124.71,91.81c-2-0.05-4,0-5.99,0c-1.24,0-2.27-0.64-2.23-1.81c0.03-1,0.99-1.64,2.18-1.56c0.83,0.06,1.66,0.01,2.67,0.01
		c1.44,0.26,3.58-0.91,4.27,1.85C125.86,91.36,126.03,91.84,124.71,91.81z M150.81,74.99c-8.13,2.23-16.49,3.07-24.82,4.12
		c-3.76,0.47-7.41,1.6-11.21,1.88c-5.1,0.37-9.96-0.9-14.6-2.56c-4.24-1.52-8.16-3.97-12.19-6.06c-0.48-0.25-1.79-0.3-0.8-1.46
		c3.29-3.84,3.58-8.53,3.37-13.2c-0.12-2.66,0.65-3.59,3.21-3.26c0.9,0.11,1.83,0.02,2.74,0.02c0-0.04,0-0.09,0-0.13
		c0.33,0,0.67,0.02,1,0c4.15-0.22,4.15-0.22,4.97,3.73c0.67,3.26,2.52,4.35,5.6,3.26c3.34-1.18,6.89-1.01,10.31-1.64
		c0.08-0.02,0.16-0.03,0.25-0.04c3.99-0.22,7.36-3.09,11.09-3.29c4.11-0.22,7.34-1.69,10.53-3.8c1.03-0.68,1.94-0.16,2.85,0.08
		c5.65,1.51,5.64,1.53,6.28,7.25c0.49,4.39,1.53,8.68,2.73,12.91C152.53,74.27,152.11,74.63,150.81,74.99z"/>
</g>
</svg>
