<?xml version="1.0" encoding="utf-8"?>
<!-- Generator: Adobe Illustrator 25.0.1, SVG Export Plug-In . SVG Version: 6.00 Build 0)  -->
<svg version="1.1" id="Layer_1" xmlns="http://www.w3.org/2000/svg" xmlns:xlink="http://www.w3.org/1999/xlink" x="0px" y="0px"
	 viewBox="0 0 283.46 283.46" style="enable-background:new 0 0 283.46 283.46;" xml:space="preserve">
<style type="text/css">
	.st0{fill:#AAAAAA;}
</style>
<g>
	<path class="st0" d="M215.94,72.6c0.53-0.08,0.81-0.31,1.87-1.37l8.1-8.12c1.06-1.06,1.28-1.34,1.36-1.87
		c0.17-0.67-0.14-1.25-1.03-2.15l-3.37-3.37L210.42,68.2l3.38,3.37C214.69,72.46,215.27,72.77,215.94,72.6z"/>
	<path class="st0" d="M159.74,24.9l-3.87-0.53c-0.82-0.11-1.61,0.1-2.02,0.52c-0.33,0.35-0.42,0.74-0.62,2.22l-1.57,11.36
		c-0.2,1.48-0.21,1.84,0,2.31c0.31,0.64,0.87,0.92,2.16,1.09l3.51,0.48c1.29,0.18,1.9,0.06,2.37-0.47c0.33-0.39,0.42-0.74,0.62-2.22
		l1.57-11.36c0.2-1.48,0.21-1.84,0-2.31C161.58,25.35,161.02,25.08,159.74,24.9z"/>
	<polygon class="st0" points="87.93,48.36 94.21,45.23 87.57,39.43 	"/>
	<polygon class="st0" points="41.77,101.47 44.78,95.13 35.97,94.65 	"/>
	<polygon class="st0" points="244.16,87.82 235.23,88.16 238.34,94.44 	"/>
	<path class="st0" d="M141.73,6.17C66.98,6.17,6.17,66.98,6.17,141.73s60.81,135.56,135.56,135.56s135.56-60.81,135.56-135.56
		S216.48,6.17,141.73,6.17z M230.57,88.27l-3.95,0.11c-0.81,0.05-1.38,0.16-1.83,0.38c-0.42,0.21-0.76,0.51-1.29,1.21l-3.27-6.6
		c1.94,0.53,3.28,0.66,5.81,0.64l21.84-0.49c0.5-0.6,0.67-0.95,0.94-1.65l5.15,10.38l-16.7,18.57c-0.69,0.83-1.45,2.13-1.84,3.2
		l-5.88-11.86c0.7,0.18,1.25,0.13,1.85-0.17c0.63-0.32,1.29-0.86,2-1.74l1.96-2.34L230.57,88.27z M47.26,108.1
		c0.54,0.61,0.97,0.99,1.43,1.21c0.43,0.2,0.87,0.28,1.75,0.27l-3.17,6.66c-0.78-1.85-1.5-2.99-3.09-4.96L30.29,94.39
		c-0.78-0.02-1.16,0.06-1.88,0.28l4.98-10.47l24.93,1.65c1.08,0.03,2.57-0.17,3.66-0.53l-5.69,11.96c-0.3-0.66-0.67-1.06-1.28-1.35
		c-0.64-0.3-1.47-0.48-2.6-0.5l-3.05-0.1l-4.62,9.72L47.26,108.1z M63.24,78.84c1.16,1.12,2.29,1.72,3.57,1.92l-4.55,4.7
		c-0.24-1.28-0.87-2.38-2.04-3.51L46.94,69.1c-1.16-1.12-2.29-1.72-3.57-1.92l9.95-10.28l22.08,7.34L63.15,52.36
		c-1.16-1.12-2.29-1.72-3.57-1.92l4.55-4.7c0.24,1.28,0.87,2.38,2.04,3.51l16.08,15.58l-8.86,9.15l-22.72-7.3L63.24,78.84z
		 M121.55,28.61l1.81,11.01c0.23,1.4,0.58,2.06,1.28,2.47c0.57,0.31,1.09,0.34,2.65,0.08l5.1-0.84c2.37-0.39,3.32-0.71,4.85-1.63
		l0.02,5.23l-15.91,2.61c-2.06,0.34-3.93-0.11-5.36-1.28c-1.43-1.16-2.04-2.42-2.47-5.07L111.7,30.1c-0.43-2.64-0.26-4.03,0.72-5.59
		s2.61-2.59,4.67-2.92l15.48-2.54l1.77,5.18c-1.47-0.68-2.12-0.73-5-0.26l-5.45,0.89c-1.56,0.25-1.96,0.44-2.28,0.97
		C121.27,26.42,121.25,26.78,121.55,28.61z M113.79,48.1l-11.85,5.92c0.18-0.71,0.12-1.25-0.17-1.85c-0.32-0.64-0.86-1.29-1.74-1.99
		l-2.34-1.96l-9.63,4.81l0.12,3.95c0.05,0.81,0.16,1.38,0.39,1.83c0.21,0.42,0.51,0.76,1.22,1.29l-6.6,3.29
		c0.53-1.94,0.65-3.28,0.62-5.82l-0.55-21.84c-0.6-0.49-0.95-0.67-1.66-0.94l10.37-5.18l18.62,16.66
		C111.41,46.95,112.72,47.71,113.79,48.1z M183.2,25.45l12.8,6.4l-0.36,23.27l7.64-15.27c0.72-1.45,0.95-2.7,0.76-3.98l5.85,2.93
		c-1.15,0.62-2.01,1.55-2.73,3l-10.02,20.02l-11.39-5.7l0.13-23.87l-7.83,15.65c-0.72,1.45-0.95,2.7-0.76,3.98l-5.85-2.93
		c1.15-0.62,2.01-1.55,2.73-3l8.27-16.54C183.17,27.99,183.4,26.74,183.2,25.45z M171.76,29.78l-1.53,11.13
		c-0.35,2.54-1.05,4.15-2.18,5.15c-1.35,1.13-3.49,1.67-5.48,1.39l-15.15-2.09c-1.99-0.27-3.91-1.37-4.9-2.82
		c-0.82-1.27-1.06-3.01-0.71-5.55l1.53-11.13c0.35-2.54,1.05-4.15,2.18-5.15c1.35-1.13,3.49-1.67,5.48-1.39l15.15,2.09
		c1.99,0.27,3.91,1.37,4.9,2.82C171.87,25.49,172.11,27.24,171.76,29.78z M203.06,61.46l13.06-13.08c1.14-1.14,1.75-2.26,1.98-3.54
		l15.37,15.34c1.42,1.42,2.29,3.45,2.21,5.21c-0.11,1.51-0.97,3.04-2.78,4.85l-7.94,7.95c-1.81,1.81-3.34,2.68-4.85,2.79
		c-1.76,0.09-3.79-0.78-5.21-2.2l-15.37-15.34C200.8,63.22,201.92,62.61,203.06,61.46z M141.73,59.01
		c45.61,0,82.72,37.11,82.72,82.72s-37.11,82.72-82.72,82.72s-82.72-37.11-82.72-82.72S96.12,59.01,141.73,59.01z M144.43,273
		c-72.09,1.46-132.42-56.35-133.97-128.43c-0.09-4.09,0.01-8.13,0.3-12.13c0.47-6.7,6.94-11.27,13.4-9.44
		c6.18,1.75,13.99,3.78,22.64,5.94c4.85,1.21,8.12,5.64,7.98,10.63c-0.02,0.72-0.03,1.44-0.03,2.17c0,47.96,39.02,86.98,86.98,86.98
		s86.98-39.02,86.98-86.98c0-0.72-0.01-1.45-0.03-2.17c-0.13-4.99,3.14-9.43,7.98-10.63c8.65-2.15,16.46-4.18,22.64-5.94
		c6.41-1.82,12.91,2.67,13.39,9.32c0.22,3.11,0.34,6.25,0.34,9.42C273.03,213.23,215.59,271.56,144.43,273z"/>
	<path class="st0" d="M141.73,0C63.58,0,0,63.58,0,141.73s63.58,141.73,141.73,141.73s141.73-63.58,141.73-141.73S219.88,0,141.73,0
		z M141.73,281.33c-76.98,0-139.6-62.62-139.6-139.6S64.76,2.13,141.73,2.13s139.6,62.63,139.6,139.6
		C281.33,218.71,218.71,281.33,141.73,281.33z"/>
	<path class="st0" d="M46.93,177.57l-8.65,1.09c-1.21,0.17-2.41,0.46-4.18,0.89l-0.02-0.05c1.29-0.61,2.57-1.26,3.79-2l7.43-4.56
		l-1.81-5.15l-17.34,6.08l1.14,3.24l5.46-1.91c3.44-1.21,6.86-2.49,10.23-3.9l0.04,0.12l-14.59,8.94l0.69,1.96l17-2.07l0.02,0.05
		c-3.52,1-6.99,2.14-10.43,3.35l-5.45,1.91l1.13,3.24l17.34-6.08L46.93,177.57z"/>
	<path class="st0" d="M51.95,188.72l-18.2,5.05l1.78,3.22l4.51-1.46l1.94,3.52l-3.63,3.04l1.78,3.22l14.06-12.53L51.95,188.72z
		 M50.26,192.4c-0.7,0.5-1.4,0.97-2.06,1.53l-4.12,3.34l-1.42-2.57l5.06-1.62c0.83-0.27,1.6-0.6,2.4-0.93
		c0.38-0.18,0.76-0.34,1.13-0.49l0.02,0.04C50.95,191.93,50.61,192.18,50.26,192.4z"/>
	<path class="st0" d="M55.54,210.44l0.04-0.03c1.64,1.65,3.63,0.79,5.24-0.42c2.7-2.04,2.16-4.46,0.38-6.82l-3.91-5.18l-14.67,11.07
		l2.07,2.74l6.32-4.77l0.37,0.49c0.59,0.78,1.22,1.57,1.56,2.47c0.43,1.15-0.81,2.06-1.7,2.75c-0.96,0.76-2.81,2.06-3.49,3.1
		l2.27,3.01l0.27-0.21c-0.07-0.99,3.59-3.63,4.19-4.08C55.88,213.5,56.55,212.22,55.54,210.44z M54.77,207.55l-1.62-2.15l4.05-3.06
		l1.53,2.03c0.76,1.05,1.01,1.94-0.64,3.18C56.62,208.67,55.51,208.41,54.77,207.55z"/>
	<polygon class="st0" points="71.97,219.06 73.88,217.16 65.82,209.03 63.91,210.93 66.74,213.79 55.61,224.83 58.02,227.27 
		69.15,216.22 	"/>
	
		<rect x="62.38" y="225.36" transform="matrix(0.6354 -0.7721 0.7721 0.6354 -149.248 138.0437)" class="st0" width="18.38" height="3.43"/>
	<path class="st0" d="M84.4,225.28l-13.75,12.95l3.07,2.02l3.31-3.39l3.36,2.2l-1.8,4.39l3.07,2.02l6.6-17.65L84.4,225.28z
		 M83.5,231.64l-2.08,4.87l-2.46-1.61l3.72-3.8c0.61-0.62,1.13-1.28,1.68-1.94c0.25-0.33,0.52-0.66,0.78-0.96l0.04,0.03
		c-0.17,0.35-0.36,0.73-0.57,1.09C84.23,230.09,83.83,230.83,83.5,231.64z"/>
	<polygon class="st0" points="94.04,231.22 86.1,247.8 94.95,252.03 96.11,249.6 90.36,246.85 97.14,232.7 	"/>
	<path class="st0" d="M106.52,256.32l3.57,0.88l2-4.3l3.9,0.97l-0.24,4.74l3.57,0.88l0.37-18.84l-4.49-1.11L106.52,256.32z
		 M116.45,243.21c0.12-0.4,0.27-0.79,0.41-1.16l0.05,0.01c-0.05,0.39-0.1,0.81-0.17,1.22c-0.11,0.86-0.24,1.68-0.28,2.56l-0.35,5.29
		l-2.85-0.71l2.25-4.82C115.88,244.81,116.15,244.02,116.45,243.21z"/>
	<path class="st0" d="M132.65,242.62l-6.47-0.62l-1.74,18.3l3.42,0.33l0.75-7.88l0.61,0.06c0.98,0.09,1.98,0.16,2.88,0.52
		c1.14,0.45,0.97,1.99,0.89,3.11c-0.09,1.22-0.38,3.46-0.08,4.67l3.76,0.36l0.03-0.34c-0.78-0.62-0.25-5.1-0.18-5.85
		c0.17-1.76-0.32-3.11-2.32-3.57l0.01-0.05c2.32-0.1,3.04-2.15,3.23-4.15C137.74,244.14,135.6,242.9,132.65,242.62z M133.79,247.87
		c-0.17,1.83-1.12,2.48-2.25,2.44l-2.68-0.26l0.48-5.05l2.54,0.24C133.17,245.4,133.99,245.82,133.79,247.87z"/>
	<polygon class="st0" points="151.53,242.72 140.1,243.17 140.21,245.86 144.22,245.7 144.84,261.37 148.27,261.23 147.65,245.57 
		151.64,245.41 	"/>
	<path class="st0" d="M165.01,250.33c-1.1-0.75-3.39-1.74-4.62-2.25c-1.18-0.49-2.14-0.87-2.38-2.24c-0.22-1.23,0.43-1.82,1.56-2.02
		c1.86-0.33,2.28,1.24,2.54,2.86l3.26-0.57c-0.34-1.78-0.92-5.96-6.3-5.02c-3.57,0.63-5.01,2.62-4.47,5.71
		c0.17,0.97,0.66,1.9,1.35,2.62c1.69,1.57,4.06,2.17,6.07,3.24c0.97,0.45,1.58,1.09,1.77,2.15c0.24,1.38-0.3,2.24-1.73,2.49
		c-1.67,0.29-2.42-0.89-2.66-2.67l-0.19-1.06l-3.38,0.59l0.23,1.33c0.57,3.23,2.41,5.25,6.47,4.54c3.31-0.58,5.26-2.76,4.66-6.19
		C166.92,252.28,166.36,251.26,165.01,250.33z"/>
	<path class="st0" d="M177.61,236.51l2.81,18.68l3.41-1.38l-0.9-4.66l3.73-1.5l2.58,3.98l3.41-1.37l-10.74-15.48L177.61,236.51z
		 M185.14,245.36l-2.73,1.1l-1-5.23c-0.16-0.86-0.41-1.66-0.64-2.49c-0.13-0.4-0.24-0.8-0.35-1.18l0.05-0.02
		c0.19,0.35,0.39,0.71,0.57,1.09c0.41,0.76,0.79,1.5,1.27,2.23L185.14,245.36z"/>
	<path class="st0" d="M203.34,236.79l-2.99,1.73c0.53,1.05,2.24,3.57,0.61,4.52c-2.03,1.18-3.38-0.9-4.14-2.21l-2.56-4.41
		c-0.71-1.23-2.51-3.9-0.18-5.25c1.46-0.85,2.46,1.12,3.18,2.06l2.92-1.7c-0.21-0.42-0.49-0.79-0.76-1.17
		c-1.79-2.59-4.06-3.09-6.73-1.59c-4.75,2.75-3.32,5.95-1.1,10.07l1.31,2.27c2.46,4.24,4.57,7.15,9.44,4.32
		c3.31-1.92,2.99-4.71,1.46-7.7C203.66,237.43,203.49,237.1,203.34,236.79z"/>
	<path class="st0" d="M202.29,222.96l7.86,17.18l2.9-2.26l-2.15-4.23l3.17-2.47l3.58,3.11l2.9-2.26l-14.6-11.92L202.29,222.96z
		 M208.03,225.85l3.95,3.54l-2.32,1.81l-2.4-4.75c-0.39-0.78-0.85-1.48-1.3-2.22c-0.24-0.34-0.46-0.7-0.66-1.04l0.04-0.03
		c0.28,0.28,0.57,0.58,0.85,0.89C206.8,224.67,207.37,225.28,208.03,225.85z"/>
	<path class="st0" d="M225.32,213.07c-2.2-2.1-3.82-3.34-5.29-3.65c-1.97-0.42-3.38,0.53-3.96,1.13l-4.94,5.18l13.3,12.68l4.38-4.59
		c0.59-0.62,1.2-1.33,1.4-2.18C230.98,218.46,227.94,215.57,225.32,213.07z M225.89,222.98l-1.03,1.08l-9.4-8.96l1.56-1.63
		c1.42-1.49,2.97-0.63,6.1,2.37C226.97,219.51,228,220.77,225.89,222.98z"/>
	<polygon class="st0" points="236.25,210.66 231.65,207.37 234.99,202.7 232.79,201.14 229.46,205.8 225.69,203.11 229.31,198.04 
		227.12,196.48 221.5,204.33 236.45,215.02 242.07,207.17 239.87,205.6 	"/>
	<path class="st0" d="M233.61,184.51l6.82,5.44c0.97,0.75,2.01,1.41,3.56,2.37l-0.02,0.04c-1.34-0.5-2.7-0.96-4.08-1.31l-8.45-2.15
		l-2.43,4.89l16.46,8.17l1.53-3.07l-5.18-2.57c-3.27-1.62-6.57-3.18-9.94-4.6l0.06-0.11l16.59,4.21l0.92-1.86l-13.35-10.73
		l0.02-0.04c3.17,1.82,6.41,3.51,9.68,5.13l5.18,2.57l1.53-3.07l-16.46-8.17L233.61,184.51z"/>
	<path class="st0" d="M240.61,164.78l-1.08,3.59l3.51,2.77c0.86,0.7,1.72,1.44,3.01,2.08l-0.01,0.05c-0.98-0.14-1.96-0.13-2.93-0.04
		l-5.18,0.46l-1.08,3.59l11.49-1.53l7.48,2.26l0.99-3.28l-7.48-2.26L240.61,164.78z"/>
	<path class="st0" d="M104.43,143.58h68.66c1.75,0,3.16,1.42,3.16,3.16l0,0c0,1.75-1.42,3.16-3.16,3.16h-64.87
		c-9.2,0-16.67,7.46-16.67,16.67v1.7c0,18.96,15.42,34.38,34.38,34.38c0,0,23.41,1.28,47.97-19.13c1.66-1.38,0.67-4.08-1.49-4.08
		h-27.07h-19.42c-0.29,0-0.57-0.01-0.85-0.03c-3.97-0.3-3.63-6.3,0.35-6.3h52.59c13.98,0,25.31-11.33,25.31-25.31v-2.14
		c0-13.98-11.33-25.31-25.31-25.31h-54.77c-4,0-4.31-6.02-0.32-6.3c0.3-0.02,0.6-0.03,0.9-0.03h14.84c-0.28-0.2-0.55-0.39-0.82-0.6
		c-2.89-2.28-5.04-5.39-5.94-8.74c1.93,2.91,4.36,5.34,7.19,7.13c1.47,0.93,3.04,1.66,4.67,2.22h0.28c0.22,0.11,0.44,0.2,0.67,0.3
		c1.21,0.35,2.46,0.6,3.71,0.75c1.64,0.2,3.34,0.17,5.07,0.08c1.73-0.06,3.47-0.26,5.22-0.41c2.7-0.27,11.62-1.55,13.17-1.96
		c2.24-0.59,4.07-1.83,5.39-3.43h7.11l5.34,5.34c0.26,0.26,0.6,0.39,0.95,0.39c0.34,0,0.69-0.13,0.95-0.39
		c0.52-0.52,0.52-1.37,0-1.89l-4.79-4.79l4.79-4.79c0.52-0.52,0.52-1.37,0-1.89s-1.37-0.52-1.89,0l-5.34,5.34h-5.54
		c1.32-3.23,1.02-7.1-1.4-10.21c-7.41-9.52-17.86-18.69-24.54-18.69c-9.54,0-17.55,4.74-19.78,13.04h-9.3
		c-19.98,0-36.22,16.32-36.08,36.33C87.83,136.27,95.32,143.58,104.43,143.58z M153.44,91.08c0.01-0.02,0.01-0.04,0.02-0.07
		c0.72-2.71,4.38-3.33,6.05-1.09c0.69,0.93,1.46,1.82,2.32,2.66c1.45,1.42,3.03,2.57,4.68,3.49c-0.12,1.5-7.25,2.73-8.72,2.35
		C154.56,97.6,152.61,94.31,153.44,91.08z"/>
	<ellipse class="st0" cx="31.51" cy="147.77" rx="8.94" ry="8.94"/>
	
		<ellipse transform="matrix(0.9986 -0.0535 0.0535 0.9986 -7.5505 13.7007)" class="st0" cx="251.95" cy="147.78" rx="8.94" ry="8.94"/>
</g>
</svg>
